<?xml version="1.0" standalone="no"?>
<!DOCTYPE svg PUBLIC "-//W3C//DTD SVG 20010904//EN"
 "http://www.w3.org/TR/2001/REC-SVG-20010904/DTD/svg10.dtd">
<svg version="1.0" xmlns="http://www.w3.org/2000/svg"
 width="1024.000000pt" height="1024.000000pt" viewBox="0 0 1024.000000 1024.000000"
 preserveAspectRatio="xMidYMid meet">
<metadata>
Created by potrace 1.11, written by Peter Selinger 2001-2013
</metadata>
<g transform="translate(0.000000,1024.000000) scale(0.100000,-0.100000)"
fill="#000000" stroke="none">
<path d="M1155 9379 c-380 -55 -686 -376 -723 -756 -9 -98 -8 -6985 2 -7033
18 -92 41 -171 67 -228 122 -272 379 -463 671 -500 110 -14 7882 -8 7948 6
304 66 548 277 644 558 53 158 50 -55 50 3699 0 2786 -2 3503 -12 3555 -73
373 -357 647 -727 700 -88 12 -7833 11 -7920 -1z"/>
</g>
</svg>
